<svg width="18" height="18" viewBox="0 0 18 18" fill="none" xmlns="http://www.w3.org/2000/svg">
<path d="M14.0001 11.5V6.5C14.0001 4.14333 14.0001 2.96417 13.2676 2.2325C12.5359 1.5 11.3567 1.5 9.00008 1.5H5.66675C3.31008 1.5 2.13091 1.5 1.39925 2.2325C0.666748 2.96417 0.666748 4.14333 0.666748 6.5V11.5C0.666748 13.8567 0.666748 15.0358 1.39925 15.7675C2.13091 16.5 3.31008 16.5 5.66675 16.5H15.6667M4.00008 5.66667H10.6667M4.00008 9H10.6667M4.00008 12.3333H7.33341" stroke="#6B7280" stroke-width="1.25" stroke-linecap="round" stroke-linejoin="round"/>
<path d="M14 5.66669H14.8333C16.0117 5.66669 16.6008 5.66669 16.9667 6.03335C17.3333 6.39919 17.3333 6.98835 17.3333 8.16669V14.8334C17.3333 15.2754 17.1577 15.6993 16.8452 16.0119C16.5326 16.3244 16.1087 16.5 15.6667 16.5C15.2246 16.5 14.8007 16.3244 14.4882 16.0119C14.1756 15.6993 14 15.2754 14 14.8334V5.66669Z" stroke="#6B7280" stroke-width="1.25" stroke-linecap="round" stroke-linejoin="round"/>
</svg>
