<svg width="22" height="22" viewBox="0 0 22 22" fill="none" xmlns="http://www.w3.org/2000/svg">
<path d="M17.075 10.2875C19.7 10.2875 21.875 8.14998 21.875 5.48748C21.875 2.86248 19.7375 0.687476 17.075 0.687476C15.125 0.687476 13.4375 1.84998 12.6875 3.53748C11.75 3.01248 10.7 2.67498 9.57504 2.56248V1.17498C9.57504 0.724976 9.20004 0.349976 8.75004 0.349976C8.30004 0.349976 7.92504 0.724976 7.92504 1.17498V2.59998C7.88754 2.59998 7.85004 2.59998 7.81254 2.59998C3.98754 3.01248 1.10004 6.08748 1.10004 9.76248V16.4375C1.06254 16.7375 0.987543 16.8875 0.950043 17L0.350043 18.05C0.125043 18.3875 0.0875435 18.8375 0.312543 19.2125L0.350043 19.25C0.575043 19.5875 0.912543 19.775 1.32504 19.775H7.96254V20.8625C7.96254 21.3125 8.33754 21.6875 8.78754 21.6875C9.23754 21.6875 9.61254 21.3125 9.61254 20.8625V19.775H16.2875C16.7 19.775 17.0375 19.5875 17.2625 19.25C17.4875 18.875 17.4875 18.425 17.2625 18.05L16.625 17.0375C16.5125 16.85 16.4375 16.6625 16.4375 16.475V10.2125C16.625 10.25 16.85 10.2875 17.075 10.2875ZM17.075 2.37498C18.8 2.37498 20.1875 3.76248 20.1875 5.48748C20.1875 7.21248 18.8 8.59998 17.075 8.59998C15.35 8.59998 13.9625 7.21248 13.9625 5.48748C13.9625 3.76248 15.35 2.37498 17.075 2.37498ZM14.75 9.64998V16.475C14.75 16.9625 14.9 17.45 15.1625 17.9375L15.2375 18.0875H8.78754C8.78754 18.0875 8.78754 18.0875 8.75004 18.0875C8.71254 18.0875 8.75004 18.0875 8.71254 18.0875H2.26254L2.41254 17.8625C2.60004 17.525 2.71254 17.15 2.78754 16.625V9.79998C2.78754 6.98748 5.03754 4.58748 8.00004 4.28748C9.53754 4.09998 11.0375 4.47498 12.275 5.29998C12.275 5.37498 12.275 5.44998 12.275 5.48748C12.275 7.28748 13.2875 8.82498 14.75 9.64998Z" fill="#111928"/>
</svg>
