<svg width="20" height="20" viewBox="0 0 20 20" fill="none" xmlns="http://www.w3.org/2000/svg">
<path d="M9.99976 4.84357C8.28101 4.84357 6.87476 6.21857 6.87476 7.87482C6.87476 9.53107 8.28101 10.9373 9.99976 10.9373C11.7185 10.9373 13.1248 9.56232 13.1248 7.90607C13.1248 6.24982 11.7185 4.84357 9.99976 4.84357ZM9.99976 9.53107C9.06226 9.53107 8.28101 8.81232 8.28101 7.90607C8.28101 6.99982 9.06226 6.24982 9.99976 6.24982C10.9373 6.24982 11.7185 6.96857 11.7185 7.87482C11.7185 8.78107 10.9373 9.53107 9.99976 9.53107Z" fill="#6B7280"/>
<path d="M9.99976 0.562317C4.78101 0.562317 0.562256 4.78107 0.562256 9.99982C0.562256 15.2186 4.78101 19.4686 9.99976 19.4686C15.2185 19.4686 19.4685 15.2186 19.4685 9.99982C19.4685 4.78107 15.2185 0.562317 9.99976 0.562317ZM6.18726 17.0623V14.4998C6.18726 13.4998 6.99976 12.6873 7.99976 12.6873H12.0623C13.0623 12.6873 13.8748 13.4998 13.8748 14.4998V17.0623C12.7498 17.6873 11.4373 18.0311 10.031 18.0311C8.62476 18.0623 7.31226 17.6873 6.18726 17.0623ZM15.2498 16.0936V14.4998C15.2498 12.7186 13.8123 11.2811 12.031 11.2811H7.96851C6.18726 11.2811 4.74976 12.7186 4.74976 14.4998V16.0936C3.03101 14.6248 1.93726 12.4373 1.93726 9.99982C1.96851 5.56232 5.56226 1.96857 9.99976 1.96857C14.4373 1.96857 18.0623 5.59357 18.0623 10.0311C18.0623 12.4373 16.9685 14.6248 15.2498 16.0936Z" fill="#6B7280"/>
</svg>
