<svg width="20" height="20" viewBox="0 0 20 20" fill="none" xmlns="http://www.w3.org/2000/svg">
<path d="M11.0779 0C11.3719 0 11.6349 0.183 11.7339 0.457L12.4399 2.414C12.6925 2.47667 12.9105 2.54067 13.0939 2.606C13.2939 2.67733 13.5539 2.78733 13.8739 2.936L15.5179 2.066C15.652 1.99458 15.8057 1.96874 15.9558 1.99237C16.1059 2.016 16.2442 2.08783 16.3499 2.197L17.7959 3.692C17.9879 3.891 18.0419 4.182 17.9339 4.436L17.1629 6.243C17.2902 6.47767 17.3929 6.679 17.4709 6.847C17.5549 7.029 17.6589 7.28233 17.7829 7.607L19.5799 8.377C19.8499 8.492 20.0169 8.762 19.9989 9.051L19.8669 11.126C19.8579 11.2608 19.8095 11.39 19.7277 11.4975C19.6459 11.6051 19.5344 11.6863 19.4069 11.731L17.7049 12.336C17.6562 12.5707 17.6049 12.7727 17.5509 12.942C17.4635 13.2044 17.3641 13.4627 17.2529 13.716L18.1079 15.606C18.1687 15.7387 18.1852 15.8875 18.155 16.0303C18.1247 16.1731 18.0493 16.3024 17.9399 16.399L16.3139 17.851C16.207 17.9466 16.0733 18.0071 15.931 18.0243C15.7886 18.0414 15.6444 18.0145 15.5179 17.947L13.8419 17.059C13.5799 17.1984 13.3094 17.321 13.0319 17.426L12.2999 17.7L11.6499 19.5C11.6012 19.6315 11.5142 19.7454 11.4001 19.8269C11.286 19.9084 11.1501 19.9537 11.0099 19.957L9.10988 20C8.96593 20.0033 8.82446 19.9622 8.70474 19.8822C8.58502 19.8022 8.49288 19.6873 8.44088 19.553L7.67488 17.526C7.41359 17.4365 7.15483 17.3398 6.89888 17.236C6.6896 17.1454 6.48348 17.0477 6.28088 16.943L4.38088 17.755C4.25573 17.8087 4.11765 17.8247 3.98355 17.801C3.84945 17.7774 3.72515 17.7152 3.62588 17.622L2.21988 16.303C2.11481 16.2055 2.04324 16.0773 2.01541 15.9366C1.98757 15.796 2.00489 15.6502 2.06488 15.52L2.88188 13.74C2.77361 13.529 2.67288 13.3142 2.57988 13.096C2.47155 12.8288 2.3715 12.5584 2.27988 12.285L0.489879 11.74C0.34438 11.696 0.217474 11.6052 0.128869 11.4817C0.0402643 11.3582 -0.00507958 11.2089 -0.000120812 11.057L0.0698792 9.136C0.0750793 9.01072 0.114321 8.88922 0.183387 8.78456C0.252453 8.6799 0.348733 8.59605 0.461879 8.542L2.33988 7.64C2.42655 7.32133 2.50321 7.072 2.56988 6.892C2.66423 6.65025 2.769 6.41269 2.88388 6.18L2.06988 4.46C2.00764 4.32948 1.98862 4.18252 2.0156 4.04045C2.04257 3.89839 2.11413 3.76862 2.21988 3.67L3.62388 2.344C3.72217 2.25095 3.84533 2.1884 3.97844 2.1639C4.11155 2.13941 4.24891 2.15403 4.37388 2.206L6.27188 2.99C6.48121 2.85067 6.67188 2.736 6.84388 2.646C7.04855 2.538 7.32321 2.42267 7.66788 2.3L8.32788 0.459C8.37717 0.324592 8.46648 0.208527 8.58378 0.126454C8.70108 0.0443815 8.84072 0.000246609 8.98388 0L11.0779 0ZM10.5879 1.377H9.47488L8.86988 3.071C8.83386 3.16952 8.77615 3.25869 8.70103 3.3319C8.62591 3.40512 8.53529 3.46052 8.43588 3.494C7.99988 3.639 7.68488 3.764 7.50088 3.861C7.30488 3.96433 7.05821 4.121 6.76088 4.331C6.66412 4.39925 6.55162 4.44184 6.43392 4.45478C6.31622 4.46772 6.19716 4.45059 6.08788 4.405L4.25788 3.65L3.54488 4.324L4.28788 5.894C4.33236 5.98741 4.35494 6.08974 4.3539 6.19319C4.35286 6.29665 4.32823 6.3985 4.28188 6.491C4.08188 6.892 3.94688 7.188 3.87888 7.37C3.77416 7.67283 3.68406 7.98052 3.60888 8.292C3.58375 8.38945 3.53762 8.48023 3.4737 8.55796C3.40978 8.6357 3.32964 8.69851 3.23888 8.742L1.44888 9.601L1.41288 10.581L3.03288 11.073C3.24788 11.138 3.41788 11.303 3.48888 11.515C3.64955 11.9963 3.77621 12.3483 3.86888 12.571C3.99078 12.8527 4.12559 13.1287 4.27288 13.398C4.32271 13.4907 4.35036 13.5936 4.35366 13.6988C4.35695 13.8039 4.33581 13.9084 4.29188 14.004L3.54088 15.642L4.25188 16.31L6.03388 15.548C6.12982 15.5068 6.23376 15.4875 6.3381 15.4917C6.44244 15.4958 6.54452 15.5233 6.63688 15.572C7.00355 15.764 7.27321 15.8967 7.44588 15.97C7.62088 16.043 7.95588 16.165 8.44188 16.331C8.53813 16.3644 8.62594 16.4183 8.69917 16.4892C8.7724 16.56 8.8293 16.6459 8.86588 16.741L9.57388 18.612L10.4999 18.592L11.0969 16.938C11.1315 16.8439 11.1859 16.7583 11.2565 16.687C11.3271 16.6158 11.4121 16.5605 11.5059 16.525L12.5429 16.137C12.8055 16.0403 13.1225 15.887 13.4939 15.677C13.5965 15.619 13.712 15.5879 13.8299 15.5865C13.9477 15.5851 14.0639 15.6135 14.1679 15.669L15.7449 16.504L16.6319 15.713L15.8559 14C15.816 13.9121 15.7952 13.8167 15.7951 13.7201C15.7949 13.6236 15.8153 13.5281 15.8549 13.44C16.0369 13.033 16.1599 12.726 16.2219 12.53C16.2839 12.3367 16.3455 12.0617 16.4069 11.705C16.4279 11.5841 16.4807 11.4709 16.56 11.3772C16.6393 11.2836 16.7421 11.2127 16.8579 11.172L18.5059 10.587L18.5779 9.447L16.9579 8.753C16.8719 8.71589 16.7942 8.6619 16.7294 8.59422C16.6647 8.52654 16.6142 8.44656 16.5809 8.359C16.4656 8.04015 16.3395 7.7253 16.2029 7.415C16.0737 7.14473 15.9336 6.87984 15.7829 6.621C15.7305 6.5296 15.7001 6.42729 15.694 6.32212C15.6879 6.21696 15.7064 6.11182 15.7479 6.015L16.4729 4.315L15.7089 3.525L14.2209 4.313C14.1238 4.36475 14.0159 4.3929 13.9059 4.39516C13.796 4.39741 13.687 4.37372 13.5879 4.326C13.2722 4.16856 12.9492 4.0264 12.6199 3.9C12.3394 3.80529 12.0531 3.72847 11.7629 3.67C11.648 3.64507 11.5412 3.5916 11.4524 3.51452C11.3636 3.43745 11.2957 3.33925 11.2549 3.229L10.5879 1.377ZM10.0239 5.641C12.4589 5.641 14.4339 7.594 14.4339 10.002C14.4339 12.41 12.4589 14.362 10.0239 14.362C7.58888 14.362 5.61388 12.41 5.61388 10.002C5.61388 7.594 7.58788 5.642 10.0239 5.642M10.0239 7.02C8.35688 7.02 7.00588 8.355 7.00588 10.003C7.00588 11.651 8.35688 12.987 10.0239 12.987C11.6909 12.987 13.0409 11.651 13.0409 10.003C13.0409 8.355 11.6909 7.02 10.0239 7.02Z" fill="#6B7280"/>
</svg>
